<svg xmlns="http://www.w3.org/2000/svg" version="1.1" xmlns:xlink="http://www.w3.org/1999/xlink" xmlns:svgjs="http://svgjs.dev/svgjs" width="1000" height="999" viewBox="0 0 1000 999"><g transform="matrix(1,0,0,1,-0.215743440233382,-0.21552769679306039)"><svg viewBox="0 0 343 343" data-background-color="#ffffff" preserveAspectRatio="xMidYMid meet" height="999" width="1000" xmlns="http://www.w3.org/2000/svg" xmlns:xlink="http://www.w3.org/1999/xlink"><g id="tight-bounds" transform="matrix(1,0,0,1,0.0740000000000407,0.07400000000001228)"><svg viewBox="0 0 342.85155851775386 342.85155851775386" height="342.85155851775386" width="342.85155851775386"><g><svg></svg></g><g><svg viewBox="0 0 342.85155851775386 342.85155851775386" height="342.85155851775386" width="342.85155851775386"><g><path d="M0 171.426c0-94.676 76.75-171.426 171.426-171.426 94.676 0 171.426 76.75 171.426 171.426 0 94.676-76.75 171.426-171.426 171.426-94.676 0-171.426-76.75-171.426-171.426zM171.426 331.666c88.498 0 160.24-71.742 160.24-160.24 0-88.498-71.742-160.24-160.24-160.24-88.498 0-160.24 71.742-160.24 160.24 0 88.498 71.742 160.24 160.24 160.24z" data-fill-palette-color="tertiary" fill="#bb84e8" stroke="transparent"></path><ellipse rx="164.56874808852186" ry="164.56874808852186" cx="171.42577925887693" cy="171.42577925887693" fill="#bb84e8" stroke="transparent" stroke-width="0" fill-opacity="1" data-fill-palette-color="tertiary"></ellipse></g><g transform="matrix(1,0,0,1,64.84655864529837,109.40613040353514)"><svg viewBox="0 0 213.1584412271571 124.03929771068356" height="124.03929771068356" width="213.1584412271571"><g><svg viewBox="0 0 213.1584412271571 124.03929771068356" height="124.03929771068356" width="213.1584412271571"><g><svg viewBox="0 0 213.1584412271571 124.03929771068356" height="124.03929771068356" width="213.1584412271571"><g><svg viewBox="0 0 213.1584412271571 124.03929771068356" height="124.03929771068356" width="213.1584412271571"><g id="textblocktransform"><svg viewBox="0 0 213.1584412271571 124.03929771068356" height="124.03929771068356" width="213.1584412271571" id="textblock"><g><svg viewBox="0 0 213.1584412271571 124.03929771068356" height="124.03929771068356" width="213.1584412271571"><g transform="matrix(1,0,0,1,0,0)"><svg width="213.1584412271571" viewBox="4 -34.099998474121094 58.599998474121094 34.099998474121094" height="124.03929771068356" data-palette-color="#ffffff"><path d="M7.75 0L4 0 4-34.1 7.75-34.1 7.75-19.35 25.75-19.35 25.75-34.1 29.5-34.1 29.5 0 25.75 0 25.75-16.25 7.75-16.25 7.75 0ZM41.25 0L37.5 0 37.5-34.1 41.5-34.1 58.85-5.65 58.85-34.1 62.6-34.1 62.6 0 58.6 0 41.25-28.35 41.25 0Z" opacity="1" transform="matrix(1,0,0,1,0,0)" fill="#ffffff" class="wordmark-text-0" data-fill-palette-color="quaternary" id="text-0"></path></svg></g></svg></g></svg></g></svg></g><g></g></svg></g></svg></g></svg></g></svg></g><defs></defs></svg><rect width="342.85155851775386" height="342.85155851775386" fill="none" stroke="none" visibility="hidden"></rect></g></svg></g></svg>